<?xml version="1.0" encoding="UTF-8" standalone="no"?>
<!-- Created with Inkscape (http://www.inkscape.org/) -->

<svg
   xmlns:dc="http://purl.org/dc/elements/1.1/"
   xmlns:cc="http://creativecommons.org/ns#"
   xmlns:rdf="http://www.w3.org/1999/02/22-rdf-syntax-ns#"
   xmlns:svg="http://www.w3.org/2000/svg"
   xmlns="http://www.w3.org/2000/svg"
   xmlns:sodipodi="http://sodipodi.sourceforge.net/DTD/sodipodi-0.dtd"
   xmlns:inkscape="http://www.inkscape.org/namespaces/inkscape"
   width="210mm"
   height="297mm"
   viewBox="0 0 210 297"
   version="1.1"
   id="svg8"
   inkscape:version="0.92.0 r15299"
   sodipodi:docname="Important.svg">
  <defs
     id="defs2">
    <filter
       inkscape:collect="always"
       style="color-interpolation-filters:sRGB"
       id="filter5228"
       x="-0.044299758"
       width="1.0885995"
       y="-0.052374722"
       height="1.1047494">
      <feGaussianBlur
         inkscape:collect="always"
         stdDeviation="1.8650247"
         id="feGaussianBlur5230" />
    </filter>
    <filter
       inkscape:collect="always"
       style="color-interpolation-filters:sRGB"
       id="filter5330"
       x="-0.24709937"
       width="1.4941987"
       y="-0.079241113"
       height="1.1584822">
      <feGaussianBlur
         inkscape:collect="always"
         stdDeviation="1.5848477"
         id="feGaussianBlur5332" />
    </filter>
  </defs>
  <sodipodi:namedview
     id="base"
     pagecolor="#ffffff"
     bordercolor="#666666"
     borderopacity="1.0"
     inkscape:pageopacity="0.0"
     inkscape:pageshadow="2"
     inkscape:zoom="0.34222863"
     inkscape:cx="930.18925"
     inkscape:cy="364.83361"
     inkscape:document-units="mm"
     inkscape:current-layer="layer1"
     showgrid="false"
     inkscape:window-width="1600"
     inkscape:window-height="838"
     inkscape:window-x="-8"
     inkscape:window-y="-8"
     inkscape:window-maximized="1" />
  <metadata
     id="metadata5">
    <rdf:RDF>
      <cc:Work
         rdf:about="">
        <dc:format>image/svg+xml</dc:format>
        <dc:type
           rdf:resource="http://purl.org/dc/dcmitype/StillImage" />
        <dc:title></dc:title>
      </cc:Work>
    </rdf:RDF>
  </metadata>
  <g
     inkscape:label="Layer 1"
     inkscape:groupmode="layer"
     id="layer1">
    <path
       style="opacity:1;vector-effect:none;fill:#fffffd;fill-opacity:1;stroke:#e00000;stroke-width:12.291;stroke-linecap:butt;stroke-linejoin:round;stroke-miterlimit:4;stroke-dasharray:none;stroke-dashoffset:0;stroke-opacity:1;paint-order:normal"
       d="m 80.000005,81.442306 50.520125,85.462204 h -101.040263 z"
       id="rect4485"
       inkscape:connector-curvature="0"
       sodipodi:nodetypes="cccc"
       inkscape:export-xdpi="90"
       inkscape:export-ydpi="90" />
    <g
       aria-label="!"
       style="font-style:normal;font-variant:normal;font-weight:normal;font-stretch:normal;font-size:10.58333302px;line-height:6.61458302px;font-family:Arial;-inkscape-font-specification:Arial;letter-spacing:0px;word-spacing:0px;fill:#000000;fill-opacity:1;stroke:none;stroke-width:1.46500002;stroke-linecap:butt;stroke-linejoin:miter;stroke-opacity:1;stroke-miterlimit:4;stroke-dasharray:none"
       id="text4490"
       inkscape:export-xdpi="90"
       inkscape:export-ydpi="90">
      <path
         d="m 80.497976,146.17897 c 1.645068,0 2.996374,0.62668 4.053918,1.88007 1.057544,1.25339 1.586315,2.74179 1.586315,4.46519 0,1.64507 -0.607108,2.99637 -1.821325,4.05392 -1.175049,1.05753 -2.604691,1.58631 -4.288928,1.58631 -1.645069,0 -3.035542,-0.62669 -4.171422,-1.88008 -1.135881,-1.25339 -1.703821,-2.74178 -1.703821,-4.46518 0,-1.6059 0.607109,-2.93763 1.821326,-3.99516 1.253385,-1.09671 2.761363,-1.64507 4.523937,-1.64507 z m -0.23501,-36.01524 c 2.389265,0 4.24976,0.50918 5.581482,1.52756 1.331722,0.9792 1.997582,2.64385 1.997582,4.99395 0,0.6267 -0.05875,1.33173 -0.176257,2.11508 0,0 -1.031976,18.21828 -4.112671,24.08851 -1.010214,1.92495 -5.496134,1.85814 -6.52152,-0.0588 -3.26251,-6.09912 -4.347681,-23.91223 -4.347681,-23.91223 -0.156672,-0.74421 -0.235008,-1.4884 -0.235008,-2.2326 0,-2.27176 0.802949,-3.97557 2.408849,-5.11146 1.331722,-0.94003 3.133463,-1.41005 5.405224,-1.41005 z"
         style="font-style:normal;font-variant:normal;font-weight:bold;font-stretch:normal;font-size:50.79999924px;font-family:AcmeFont;-inkscape-font-specification:'AcmeFont Bold';stroke-width:1.46500002;stroke:none;stroke-opacity:1;stroke-miterlimit:4;stroke-dasharray:none"
         id="path4492"
         inkscape:connector-curvature="0"
         sodipodi:nodetypes="ssscssscsccscsscsccc" />
    </g>
    <path
       style="opacity:1;vector-effect:none;fill:none;fill-opacity:1;stroke:#ff2525;stroke-width:8.391;stroke-linecap:butt;stroke-linejoin:round;stroke-miterlimit:4;stroke-dasharray:none;stroke-dashoffset:0;stroke-opacity:1;paint-order:normal;filter:url(#filter5228)"
       d="m 80.000006,81.442306 50.520124,85.462204 h -101.040263 z"
       id="rect4485-7"
       inkscape:connector-curvature="0"
       sodipodi:nodetypes="cccc"
       inkscape:export-xdpi="90"
       inkscape:export-ydpi="90" />
    <g
       aria-label="!"
       style="font-style:normal;font-variant:normal;font-weight:normal;font-stretch:normal;font-size:10.58333302px;line-height:6.61458302px;font-family:Arial;-inkscape-font-specification:Arial;letter-spacing:0px;word-spacing:0px;fill:#ffffff;fill-opacity:1;stroke:none;stroke-width:1.46500003;stroke-linecap:butt;stroke-linejoin:miter;stroke-miterlimit:4;stroke-dasharray:none;stroke-opacity:1;opacity:0.424;filter:url(#filter5330)"
       id="text4490-9"
       inkscape:export-xdpi="90"
       inkscape:export-ydpi="90">
      <path
         d="m 80.497976,146.17897 c 1.645068,0 2.996374,0.62668 4.053918,1.88007 1.057544,1.25339 1.586315,2.74179 1.586315,4.46519 0,1.64507 -0.607108,2.99637 -1.821325,4.05392 -1.175049,1.05753 -2.604691,1.58631 -4.288928,1.58631 -1.645069,0 -3.035542,-0.62669 -4.171422,-1.88008 -1.135881,-1.25339 -1.703821,-2.74178 -1.703821,-4.46518 0,-1.6059 0.607109,-2.93763 1.821326,-3.99516 1.253385,-1.09671 2.761363,-1.64507 4.523937,-1.64507 z m -0.23501,-36.01524 c 2.389265,0 4.24976,0.50918 5.581482,1.52756 1.331722,0.9792 1.997582,2.64385 1.997582,4.99395 0,0.6267 -0.05875,1.33173 -0.176257,2.11508 0,0 -1.031976,18.21828 -4.112671,24.08851 -1.010214,1.92495 -5.496134,1.85814 -6.52152,-0.0588 -3.26251,-6.09912 -4.347681,-23.91223 -4.347681,-23.91223 -0.156672,-0.74421 -0.235008,-1.4884 -0.235008,-2.2326 0,-2.27176 0.802949,-3.97557 2.408849,-5.11146 1.331722,-0.94003 3.133463,-1.41005 5.405224,-1.41005 z"
         style="font-style:normal;font-variant:normal;font-weight:bold;font-stretch:normal;font-size:50.79999924px;font-family:AcmeFont;-inkscape-font-specification:'AcmeFont Bold';stroke:none;stroke-width:1.46500003;stroke-miterlimit:4;stroke-dasharray:none;stroke-opacity:1;fill:#ffffff;fill-opacity:1"
         id="path4492-3"
         inkscape:connector-curvature="0"
         sodipodi:nodetypes="ssscssscsccscsscsccc" />
    </g>
  </g>
</svg>
